<?xml version="1.0" encoding="UTF-8" standalone="no"?>
<svg
   width="1024"
   height="1024"
   version="1.1"
   id="svg18"
   xmlns="http://www.w3.org/2000/svg"
   xmlns:svg="http://www.w3.org/2000/svg">
  <defs
     id="defs18" />
  <path
     d="M 3.9353914e-4,0 H 1023.9982 V 1023.9978 H 3.9353914e-4 Z"
     style="fill:#0000cc;fill-opacity:1;stroke-width:10.24"
     id="path1" />
  <path
     d="M 3.9353914e-4,880.63811 V 1023.9978 H 1023.9982 V 880.63811 Z"
     style="fill:#2b0000;fill-opacity:1;stroke-width:10.24"
     id="path2" />
  <path
     d="m 245.75987,951.58997 v 72.39983 h 163.83965 v -72.39983 z m 204.79955,0 v 72.39983 h 163.83966 v -72.39983 z m 204.79957,0 v 72.39983 h 163.83965 v -72.39983 z m -614.398684,0.73599 v 71.67184 H 204.79996 V 952.31796 H 40.960306 Z m 819.198244,0 v 71.67184 H 1023.9982 V 952.31796 H 860.15855 Z"
     style="fill:#008080;fill-opacity:1;stroke-width:10.24"
     id="path3" />
  <path
     d="m 3.9353914e-4,880.63811 v 71.67985 H 81.920218 V 916.47804 H 40.960306 v -35.83993 z"
     style="fill:#e6e6e6;fill-opacity:1;stroke-width:10.24"
     id="path4" />
  <path
     d="M 3.9353914e-4,0 V 880.63011 H 1023.9982 V 0 Z M 40.960306,40.951912 H 327.6797 V 706.55049 H 40.960306 Z m 317.439314,0 H 491.51934 V 706.55049 H 358.39962 Z m 174.07964,0 H 819.19864 V 706.55049 H 532.47926 Z m 317.43931,0 H 983.03829 V 706.55049 H 849.91857 Z M 71.68024,174.07162 v 30.71994 h 225.27952 v -30.71994 z m 317.43932,0 v 30.71994 h 71.67984 v -30.71994 z m 174.07962,0 v 30.71994 h 225.27953 v -30.71994 z m 317.43933,0 v 30.71994 h 71.67984 V 174.07162 Z M 71.68024,245.75948 v 30.71993 h 225.27952 v -30.71993 z m 317.43932,0 v 30.71993 h 71.67984 v -30.71993 z m 174.07962,0 v 30.71993 h 225.27953 v -30.71993 z m 317.43933,0 v 30.71993 h 71.67984 V 245.75948 Z M 71.68024,317.43932 v 30.71994 h 225.27952 v -30.71994 z m 317.43932,0 v 30.71994 h 71.67984 v -30.71994 z m 174.07962,0 v 30.71994 h 225.27953 v -30.71994 z m 317.43933,0 v 30.71994 h 71.67984 V 317.43932 Z M 71.68024,389.11917 v 30.71993 h 225.27952 v -30.71993 z m 317.43932,0 V 419.8391 H 460.7994 V 389.11917 Z M 71.68024,460.79901 v 30.71994 h 225.27952 v -30.71994 z m 317.43932,0 v 30.71994 H 460.7994 V 460.79901 Z M 40.960306,737.27843 H 491.51934 V 839.67821 H 40.960306 Z m 491.518954,0 H 983.03829 V 839.67821 H 532.47926 Z M 61.440262,773.11835 v 30.71993 H 266.23982 v -30.71993 z m 235.519498,0 v 30.71993 h 30.71994 v -30.71993 z m 61.43986,0 v 30.71993 h 92.1598 v -30.71993 z m 194.55959,0 v 30.71993 h 204.79956 v -30.71993 z m 235.5195,0 v 30.71993 h 30.71993 v -30.71993 z m 61.43986,0 v 30.71993 h 92.15981 v -30.71993 z"
     style="fill:#55ddff;fill-opacity:1;stroke-width:10.24"
     id="path5" />
  <path
     d="m 666.28437,314.83789 c -195.27271,0 -353.58019,158.3075 -353.58019,353.5802 0,195.2566 158.30748,353.58021 353.58019,353.58021 195.27272,0 353.58023,-158.32361 353.58023,-353.58021 A 351.91677,351.91677 0 0 0 961.45955,473.70791 71.543739,71.543739 0 0 0 975.37779,431.2381 c 0,-40.09924 -33.02763,-72.61253 -73.77777,-72.61253 A 74.251841,74.251841 0 0 0 858.99362,371.925 351.89267,351.89267 0 0 0 666.28437,314.83789 Z m 0,26.55868 a 325.4545,325.4545 0 0 1 173.67217,49.90303 71.439273,71.439273 0 0 0 -12.14226,39.9385 c 0,40.09919 33.04369,72.64462 73.78574,72.64462 a 74.300059,74.300059 0 0 0 40.1635,-11.71633 325.44646,325.44646 0 0 1 51.51023,176.2517 c 0,180.57502 -146.39829,327.0215 -326.98938,327.0215 -180.60713,0 -327.02151,-146.43846 -327.02151,-327.0215 0,-180.60716 146.45454,-327.02152 327.02151,-327.02152 z m 4.01797,125.66563 c -113.40282,0.0246 -205.36582,90.51651 -205.36582,202.14339 0,111.6349 91.95498,202.15146 205.37386,202.15146 54.47544,0.0246 106.71693,-21.26305 145.24911,-59.18452 38.53222,-37.91344 60.17295,-89.3433 60.17295,-142.9589 0,-53.6317 -21.64073,-105.06956 -60.17295,-142.95892 C 777.02731,488.33323 724.77778,467.0622 670.31038,467.0622 Z m 58.89521,60.69523 h 0.016 a 74.396487,74.396487 0 0 1 52.19325,21.26306 72.058037,72.058037 0 0 1 21.62464,51.39768 c -0.032,40.0992 -33.08386,72.56429 -73.81789,72.56429 -40.70995,-0.016 -73.7054,-32.50525 -73.7456,-72.58037 0,-40.09921 32.99547,-72.63662 73.72952,-72.63662 z"
     style="fill:#ffff00;fill-opacity:0.75;stroke-width:10.198"
     id="path7-3" />
  <path
     d="M 604.1591,71.671847 V 102.39978 H 767.99875 V 71.671847 Z m -491.51895,0.016 V 102.40778 H 276.4798 V 71.687847 Z m 276.47941,0 v 30.719933 h 81.91982 V 71.687847 Z m 491.51895,0 v 30.719933 h 81.91982 V 71.687847 Z"
     style="fill:#ffff00;fill-opacity:1;stroke-width:10.24"
     id="path6" />
  <g
     style="clip-rule:evenodd;fill-rule:evenodd;image-rendering:optimizeQuality;shape-rendering:geometricPrecision;text-rendering:geometricPrecision"
     id="g18"
     transform="matrix(1.9999957,0,0,1.9999957,3.9353914e-4,0)">
    <path
       d="m 205.96,15.509 c -58.833,0.166 -117.657,0.662 -176.463,1.492 -6.648,3.314 -11.148,8.48 -13.5,15.5 a 49726.54,49726.54 0 0 0 0,445.998 c 2.834,8.167 8.338,13.67 16.504,16.504 116.667,0.667 233.332,0.667 349.998,0 8.167,-2.833 13.671,-8.337 16.504,-16.504 a 9599.42,9599.42 0 0 0 0,-196 c -1.539,-3.02 -4.04,-4.353 -7.5,-4 -3.59,0.045 -6.091,1.716 -7.501,5.005 -0.333,63.667 -0.672,127.329 -1.005,190.996 A 6.977,6.977 0 0 1 380.5,478 19452.499,19452.499 0 0 1 39.495,479.502 c -3.59,-0.044 -6.08,-1.714 -7.491,-5.003 -0.5,-131 -0.674,-262.005 -0.507,-393.004 120.168,-0.333 240.174,0.005 360.006,1.004 3.287,-0.555 5.787,-2.226 7.5,-5.004 0.667,-15 0.667,-29.996 0,-44.996 C 396.17,24.333 390.666,18.829 382.5,15.996 323.638,15.499 264.793,15.341 205.96,15.508 Z m 231.553,57.988 c -5.334,0 -10.677,1.836 -16.016,5.502 a 1246.688,1246.688 0 0 1 -29.994,29.506 27866.43,27866.43 0 0 1 -242.508,244 c -1.75,1.99 -2.745,4.316 -2.994,6.993 a 2871.497,2871.497 0 0 1 -16.504,72.005 c 0.438,5.208 3.276,7.873 8.505,7.999 a 1035.432,1035.432 0 0 0 78.501,-18.504 43153.258,43153.258 0 0 1 175,-174.501 13937.14,13937.14 0 0 0 99.501,-98.995 c 6,-10.333 6,-20.666 0,-30.999 L 453.5,79 c -5.327,-3.666 -10.654,-5.502 -15.987,-5.502 z m -194.01,49.005 c -58,-0.167 -116.005,-0.002 -174.004,0.497 -6.247,4.514 -6.575,9.516 -0.995,15.002 81.333,0.5 162.666,0.665 244,0.498 5.905,-2.687 7.401,-7.022 4.496,-13.002 a 29.468,29.468 0 0 0 -4.496,-2.498 c -22.998,-0.5 -46,-0.664 -69.001,-0.497 z m 21,46.995 a 19169.98,19169.98 0 0 0 -196,0.508 c -5.779,5.876 -5.112,10.868 2,14.992 26.332,0.5 52.664,0.674 79,0.507 38.334,0.167 76.669,-0.007 115,-0.507 5.446,-2.11 7.27,-5.944 5.492,-11.5 -1.45,-1.964 -3.275,-3.297 -5.491,-4 z m -122.502,46 c -24.5,0.084 -48.998,0.248 -73.497,0.498 -4.253,3.42 -5.093,7.592 -2.507,12.505 a 6.976,6.976 0 0 0 3.502,2.497 c 12.996,0.5 25.993,0.674 38.997,0.507 36.002,0.167 72.01,-0.007 108.007,-0.507 5.424,-2.017 7.26,-5.85 5.502,-11.5 -1.638,-2.234 -3.811,-3.566 -6.506,-4 -24.5,-0.083 -48.998,-0.082 -73.498,0 z m -58.065,45.858 a 86.603,86.603 0 0 0 -16.437,1.646 c -4.425,5.44 -3.76,10.105 2,13.997 35.332,0.5 70.663,0.664 105.998,0.497 6.74,-2.153 8.574,-6.478 5.501,-12.992 -1.17,-1.393 -2.667,-2.234 -4.496,-2.507 -28.998,-0.5 -57.996,-0.665 -86.997,-0.498 a 89.397,89.397 0 0 0 -5.569,-0.143 z m 19.068,46.144 c -11.166,0 -22.338,0.164 -33.505,0.497 -1.593,0.95 -2.926,2.117 -4,3.502 -0.84,1.88 -1.169,3.878 -0.994,5.999 0.728,2.235 2.06,4.07 3.999,5.501 23.333,0.667 46.663,0.667 69.996,0 5.83,-6.006 5.163,-11.008 -2,-15.002 -11.166,-0.333 -22.33,-0.497 -33.496,-0.497 z"
       style="display:inline;opacity:0.997"
       transform="matrix(0.81665,0,0,0.81657,-12.656,107.388)"
       id="path7" />
    <path
       fill="#f68b1d"
       d="m 300.531,139.643 c -90.65,-0.136 -181.298,0 -271.946,0.408 -8.411,4.45 -11.406,11.39 -8.983,20.823 h -6.533 c -0.136,-7.899 0,-15.792 0.408,-23.68 0.68,-1.77 1.905,-2.995 3.675,-3.675 a 23881.38,23881.38 0 0 1 279.296,0 c 2.686,1.151 4.047,3.193 4.083,6.124 z"
       id="path8" />
    <path
       fill="#fbb54c"
       d="m 300.531,139.643 v 21.23 H 19.601 c -2.422,-9.432 0.573,-16.373 8.984,-20.822 a 45281.67,45281.67 0 0 1 271.946,-0.408 z"
       id="path9" />
    <path
       fill="#dedede"
       d="m 307.064,174.755 v 5.716 c -42.405,0.04 -82.694,9.022 -120.865,26.947 -47.366,-0.136 -94.732,0 -142.098,0.408 -5.101,3.686 -5.373,7.769 -0.816,12.249 66.42,0.408 132.842,0.544 199.264,0.408 -27.9,0.68 -55.94,1.088 -84.116,1.225 a 219.39,219.39 0 0 0 -31.85,22.864 c 25.728,0.137 51.316,0.545 76.766,1.225 -53.355,-0.137 -106.71,0 -160.064,0.408 -4.72,4.798 -4.176,8.88 1.633,12.248 21.504,0.409 43.01,0.545 64.516,0.409 a 892.042,892.042 0 0 0 -22.05,23.272 c 25.454,0.137 50.77,0.545 75.949,1.225 -40.017,-0.137 -80.033,0 -120.048,0.408 -3.474,2.793 -4.154,6.195 -2.042,10.207 a 5.697,5.697 0 0 0 2.858,2.041 c 10.613,0.409 21.23,0.545 31.85,0.409 a 287.53,287.53 0 0 0 -15.516,24.497 71.107,71.107 0 0 0 -17.967,1.225 c -3.614,4.442 -3.07,8.253 1.633,11.431 28.854,0.409 57.71,0.545 86.566,0.409 -25.995,0.68 -52.128,1.087 -78.399,1.225 -5.188,8.568 -8.999,17.414 -11.433,26.538 -0.687,1.534 -0.96,3.168 -0.817,4.9 -0.627,-0.624 -1.035,-1.44 -1.225,-2.45 -15.881,43.52 -22.278,88.43 -19.191,134.733 -2.932,-0.036 -4.973,-1.397 -6.125,-4.083 -0.408,-106.97 -0.545,-213.94 -0.408,-320.91 98.135,-0.272 196.134,0 293.995,0.816 z"
       id="path10" />
    <path
       fill="#ededed"
       d="m 307.064,180.471 v 15.515 A 22755.402,22755.402 0 0 1 109.025,395.228 c -1.43,1.625 -2.246,3.53 -2.45,5.716 a 2344.229,2344.229 0 0 1 -13.474,58.793 c 0.357,4.253 2.671,6.43 6.941,6.533 a 845.624,845.624 0 0 0 64.108,-15.107 35238.738,35238.738 0 0 1 142.914,-142.49 v 26.13 c -2.932,0.035 -4.973,1.396 -6.125,4.082 l -0.816,155.964 a 5.698,5.698 0 0 1 -2.042,2.858 c -92.76,1.222 -185.586,1.63 -278.48,1.225 -3.086,-46.302 3.31,-91.214 19.192,-134.733 0.19,1.01 0.598,1.826 1.225,2.45 0.595,1.824 1.683,3.321 3.267,4.49 19.055,0.545 38.11,0.545 57.166,0 4.76,-4.904 4.216,-8.987 -1.634,-12.248 a 916.336,916.336 0 0 0 -54.716,0 c -1.3,0.775 -2.39,1.727 -3.266,2.858 2.434,-9.124 6.245,-17.97 11.433,-26.538 26.27,-0.138 52.404,-0.546 78.399,-1.225 5.503,-1.758 7.001,-5.296 4.491,-10.616 -0.956,-1.137 -2.18,-1.818 -3.675,-2.041 a 3089.566,3089.566 0 0 0 -71.048,-0.408 287.53,287.53 0 0 1 15.516,-24.497 c 29.401,0.136 58.8,0 88.199,-0.409 4.43,-1.647 5.927,-4.777 4.491,-9.39 -1.337,-1.824 -3.107,-2.913 -5.308,-3.266 a 3518.76,3518.76 0 0 0 -75.949,-1.225 892.042,892.042 0 0 1 22.05,-23.272 c 31.306,0.136 62.611,0 93.915,-0.409 4.447,-1.723 5.944,-4.853 4.492,-9.39 -1.185,-1.604 -2.682,-2.692 -4.492,-3.266 -25.45,-0.68 -51.038,-1.088 -76.765,-1.225 a 219.39,219.39 0 0 1 31.85,-22.864 c 28.175,-0.137 56.214,-0.546 84.115,-1.225 4.822,-2.194 6.047,-5.732 3.674,-10.615 a 24.106,24.106 0 0 0 -3.674,-2.042 c -18.782,-0.408 -37.565,-0.544 -56.35,-0.408 38.17,-17.925 78.46,-26.907 120.865,-26.947 z"
       id="path11" />
    <path
       fill="#d71b60"
       d="m 378.113,217.217 c -0.985,-2.285 -2.618,-4.055 -4.9,-5.308 -18.437,-9.921 -36.947,-10.193 -55.532,-0.817 a 29.68,29.68 0 0 0 -7.35,6.125 c -1.448,-0.665 -1.856,-1.754 -1.225,-3.267 l 32.258,-32.254 a 13.271,13.271 0 0 1 6.533,0 l 30.625,30.621 c 0.644,1.807 0.508,3.44 -0.409,4.9 z"
       id="path12" />
    <path
       fill="#ea4078"
       d="m 378.113,217.217 a 496.542,496.542 0 0 1 -33.483,34.296 1019.752,1019.752 0 0 1 -34.3,-34.296 29.68,29.68 0 0 1 7.35,-6.125 c 18.586,-9.376 37.096,-9.104 55.533,0.817 2.282,1.253 3.915,3.023 4.9,5.308 z"
       id="path13" />
    <path
       fill="#f9a528"
       d="m 333.197,262.944 a 231,231 0 0 1 -16.333,16.332 1019.752,1019.752 0 0 1 -34.3,-34.296 c 8.916,-4.56 18.171,-5.24 27.767,-2.041 8.747,5.34 16.369,12.01 22.866,20.005 z"
       id="path14" />
    <path
       fill="#f17a1f"
       d="m 270.315,252.33 c 5.323,4.359 9.814,9.258 13.475,14.697 L 136.792,414.01 123.725,400.945 c -0.544,-0.544 -0.544,-1.088 0,-1.633 A 37263.038,37263.038 0 0 0 270.315,252.33 Z"
       id="path15" />
    <path
       fill="#f38a1d"
       d="m 292.364,276.01 a 4.03,4.03 0 0 1 2.45,0.408 l 11.842,11.84 c 0.545,0.545 0.545,1.089 0,1.633 L 159.658,436.873 146.592,423.808 c -0.545,-0.545 -0.545,-1.088 0,-1.633 A 36926.046,36926.046 0 0 0 292.364,276.01 Z"
       id="path16" />
    <path
       fill="#202020"
       d="m 142.917,443.406 c -2.366,-1.86 -5.088,-3.085 -8.167,-3.675 -9.197,-1.784 -17.364,0.257 -24.5,6.124 a 399.076,399.076 0 0 1 6.125,-28.58 c 0.16,-1.458 0.84,-2.546 2.042,-3.266 a 667.321,667.321 0 0 1 27.766,27.764 13.338,13.338 0 0 1 -3.266,1.633 z"
       id="path17" />
    <path
       fill="#424242"
       d="m 142.917,443.406 a 876.295,876.295 0 0 0 -32.667,7.349 l -1.633,-0.817 a 1089.8,1089.8 0 0 1 1.633,-4.083 c 7.136,-5.867 15.303,-7.908 24.5,-6.124 3.079,0.59 5.8,1.815 8.167,3.675 z"
       id="path18" />
  </g>
</svg>
