<?xml version="1.0" encoding="UTF-8" standalone="no"?>
<svg
   width="1024"
   height="1024"
   version="1.0"
   id="svg25"
   xmlns="http://www.w3.org/2000/svg"
   xmlns:svg="http://www.w3.org/2000/svg">
  <defs
     id="defs25" />
  <path
     fill="#9bc9ff"
     d="M1006.933 597.333v68.266c-.054 18.825-15.308 34.075-34.133 34.134H682.667c-56.55 0-102.4 45.85-102.4 102.4.083 56.516 45.883 102.316 102.4 102.4l34.133 102.4H307.2l34.133-102.4c56.517-.086 102.317-45.884 102.4-102.4 0-56.55-45.85-102.4-102.4-102.4H51.2c-18.825-.059-34.075-15.309-34.133-34.134v-68.266z"
     id="path1" />
  <path
     fill="#0f0"
     d="M492.387 740.632v36.69h39.226v-36.69H493.24zm14.211 2.145h.118v32.4h-.118zm10.799 0h.005v32.4h-.005z"
     id="path2" />
  <path
     fill="#207ad3"
     d="M972.8 0H51.2C22.925 0 0 22.925 0 51.2v614.4c0 28.274 22.925 51.2 51.2 51.2h290.133c47.109.058 85.275 38.224 85.334 85.333-.084 47.091-38.242 85.25-85.334 85.333-.241 0-.425.116-.666.134-1.242.1-2.467.35-3.65.733-.95.184-1.875.442-2.784.776a17.322 17.322 0 0 0-2.783 1.874 18.562 18.562 0 0 0-2.492 1.925c-.633.767-1.2 1.584-1.708 2.442a17.16 17.16 0 0 0-1.842 3.225c0 .208-.233.342-.308.567l-34.133 102.4a17.082 17.082 0 0 0 2.358 15.391A17.085 17.085 0 0 0 307.2 1024h409.6a17.043 17.043 0 0 0 13.833-7.092 17.078 17.078 0 0 0 2.35-15.366l-34.133-102.4c0-.225-.242-.359-.308-.567a17.066 17.066 0 0 0-1.85-3.208 17.686 17.686 0 0 0-1.7-2.459 18.584 18.584 0 0 0-2.492-1.925 17.318 17.318 0 0 0-2.783-1.874 18.159 18.159 0 0 0-2.784-.776 16.05 16.05 0 0 0-3.65-.733c-.241 0-.425-.134-.666-.134-47.092-.086-85.25-38.242-85.334-85.333.06-47.109 38.225-85.275 85.334-85.334H972.8c28.275 0 51.2-22.925 51.2-51.2V51.2c0-28.274-22.925-51.2-51.2-51.2ZM563.2 802.133c.083 61.1 46.183 112.316 106.942 118.8l22.966 68.933H330.892l22.966-68.934c60.759-6.483 106.859-57.7 106.942-118.8a118.992 118.992 0 0 0-36.025-85.333h174.45a118.99 118.99 0 0 0-36.025 85.334Zm426.667-136.534c0 9.425-7.642 17.067-17.067 17.067H51.2c-9.425 0-17.067-7.642-17.067-17.067v-51.2h955.734ZM34.133 580.266V51.2c0-9.425 7.642-17.067 17.067-17.067h921.6c9.425 0 17.067 7.642 17.067 17.067v529.066H34.133Z"
     id="path3" />
  <path
     fill="#0000c0"
     d="M35.773 27.155h956.926v655.881H35.773Z"
     id="path4" />
  <path
     fill="#5df"
     d="M32.414 25.91v657.147H994.24V25.91Zm38.473 30.56h269.311v496.685H70.887Zm298.166 0h125.038v496.685H369.053Zm163.51 0h269.313v496.685H532.564zm298.167 0h125.038v496.685H830.73ZM99.742 155.807v22.924h211.602v-22.924zm298.166 0v22.924h67.328v-22.924zm163.51 0v22.924h211.603v-22.924zm298.167 0v22.924h67.328v-22.924ZM99.742 209.302v22.924h211.602v-22.924zm298.166 0v22.924h67.328v-22.924zm163.51 0v22.924h211.603v-22.924zm298.167 0v22.924h67.328v-22.924ZM99.742 262.79v22.924h211.602V262.79zm298.166 0v22.924h67.328V262.79zm163.51 0v22.924h211.603V262.79zm298.167 0v22.924h67.328V262.79ZM99.742 316.28v22.923h211.602V316.28Zm298.166 0v22.923h67.328V316.28ZM99.742 369.768v22.924h211.602V369.77zm298.166 0v22.924h67.328V369.77ZM70.887 576.085H494.09v76.413H70.887Zm461.677 0h423.204v76.413H532.564zm-442.44 26.744v22.924h192.365V602.83zm221.22 0v22.924h28.854V602.83zm57.71 0v22.924h86.564V602.83zm182.746 0v22.924h192.366V602.83zm221.22 0v22.924h28.856V602.83zm57.71 0v22.924h86.565V602.83z"
     style="stroke-width:1.00116"
     id="path5" />
  <path
     fill="#ff0"
     d="M600.808 79.394v22.93h153.535v-22.93Zm-460.603.012v22.924h153.534V79.406Zm259.09 0v22.924h76.767V79.406Zm460.603 0v22.924h76.767V79.406Z"
     id="path6" />
  <path
     fill="#ffff00"
     d="m 706.41926,154.27511 c -137.59086,0 -249.13539,111.54453 -249.13539,249.1354 0,137.57865 111.54453,249.13539 249.13539,249.13539 137.59086,0 249.13539,-111.5558 249.13539,-249.13539 a 247.96364,247.96364 0 0 0 -41.15247,-137.19372 50.410143,50.410143 0 0 0 9.80692,-29.92497 c 0,-28.25372 -23.27185,-51.16315 -51.98469,-51.16315 a 52.318011,52.318011 0 0 0 -30.02075,9.37034 247.9458,247.9458 0 0 0 -135.7844,-40.22296 z m 0,18.71344 a 229.3178,229.3178 0 0 1 122.37111,35.16222 50.336908,50.336908 0 0 0 -8.55535,28.14105 c 0,28.25467 23.28217,51.18568 51.98939,51.18568 a 52.35275,52.35275 0 0 0 28.29971,-8.25489 229.31217,229.31217 0 0 1 36.29456,124.1879 c 0,127.23468 -103.15348,230.42195 -230.39942,230.42195 -127.2572,0 -230.42195,-103.18164 -230.42195,-230.42195 0,-127.25721 103.1929,-230.42196 230.42195,-230.42196 z m 2.83081,88.54497 c -79.90416,0.0168 -144.70217,63.7793 -144.70217,142.43283 0,78.65822 64.79238,142.43658 144.70875,142.43658 38.38269,0.0168 75.1927,-14.9822 102.34319,-41.70176 27.15051,-26.71389 42.39842,-62.9521 42.39842,-100.73012 0,-37.78931 -15.24791,-74.03315 -42.39842,-100.73016 -27.15049,-26.71954 -63.9652,-41.70643 -102.34319,-41.70643 z m 41.49895,42.76739 h 0.0112 a 52.420351,52.420351 0 0 1 36.77527,14.98126 50.772562,50.772562 0 0 1 15.23666,36.2157 c -0.0225,28.25372 -23.31035,51.12934 -52.01193,51.12934 -28.68466,-0.0121 -51.93399,-22.90379 -51.96216,-51.14154 0,-28.25372 23.24932,-51.18005 51.94996,-51.18005 z"
     opacity="0.9"
     id="path7-3"
     style="stroke-width:0.938911" />
  <g
     style="clip-rule:evenodd;fill-rule:evenodd;image-rendering:optimizeQuality;shape-rendering:geometricPrecision;text-rendering:geometricPrecision"
     id="g25">
    <path
       d="M391.5 82.5a32400.61 32400.61 0 0 0-360-1c-.167 131 0 262 .5 393 1.41 3.289 3.91 4.956 7.5 5 113.748.496 227.414-.004 341-1.5a6.978 6.978 0 0 0 2.5-3.5l1-191c1.41-3.289 3.91-4.956 7.5-5 3.461-.354 5.961.979 7.5 4a9599.45 9599.45 0 0 1 0 196c-2.833 8.167-8.333 13.667-16.5 16.5-116.667.667-233.333.667-350 0-8.167-2.833-13.667-8.333-16.5-16.5a49726.764 49726.764 0 0 1 0-446c2.351-7.02 6.851-12.186 13.5-15.5a15643.975 15643.975 0 0 1 353-1c8.167 2.833 13.667 8.333 16.5 16.5.667 15 .667 30 0 45-1.713 2.778-4.213 4.445-7.5 5z"
       style="opacity:.997"
       transform="matrix(1.22492 0 0 1.25699 44.864 35.431)"
       id="path7" />
    <path
       fill="#f68b1d"
       d="M514.623 85.082c-135.968-.21-271.935 0-407.9.629-12.616 6.849-17.107 17.533-13.474 32.053h-9.8a542.92 542.92 0 0 1 .613-36.453c1.02-2.723 2.858-4.609 5.512-5.656 139.641-.838 279.283-.838 418.924 0 4.029 1.773 6.07 4.915 6.125 9.427z"
       id="path8" />
    <path
       fill="#fbb54c"
       d="M514.623 85.082v32.682H93.249c-3.633-14.52.858-25.204 13.474-32.053a66182.37 66182.37 0 0 1 407.9-.629z"
       id="path9" />
    <path
       fill="#040202"
       d="M391.5 246.5a43152.405 43152.405 0 0 0-175 174.5 1035.38 1035.38 0 0 1-78.5 18.5c-5.229-.126-8.062-2.792-8.5-8a2871.097 2871.097 0 0 0 16.5-72c.249-2.677 1.249-5.01 3-7a27865.689 27865.689 0 0 0 242.5-244 1246.627 1246.627 0 0 0 30-29.5c10.679-7.331 21.346-7.331 32 0l37.5 37.5c6 10.333 6 20.667 0 31a13937.687 13937.687 0 0 1-99.5 99z"
       style="opacity:.99"
       transform="matrix(1.22492 0 0 1.25699 44.864 35.431)"
       id="path10" />
    <path
       fill="#dedede"
       d="M524.422 139.133v8.799c-63.605.061-124.036 13.888-181.289 41.48-71.047-.21-142.092 0-213.136.629-7.653 5.674-8.06 11.959-1.225 18.855 99.626.628 199.253.838 298.881.628a6312.74 6312.74 0 0 1-126.167 1.886 329.403 329.403 0 0 0-47.772 35.196c38.589.21 76.97.84 115.143 1.885-80.03-.21-160.059 0-240.085.629-7.08 7.386-6.263 13.67 2.45 18.854 32.253.629 64.51.839 96.768.629a1359.001 1359.001 0 0 0-33.072 35.824c38.18.211 76.152.84 113.917 1.886-60.022-.21-120.043 0-180.063.628-5.21 4.299-6.23 9.537-3.063 15.712 1.106 1.51 2.535 2.558 4.288 3.143 15.918.628 31.842.838 47.772.628a444.41 444.41 0 0 0-23.274 37.71c-9.122-.54-18.105.09-26.948 1.885-5.422 6.84-4.605 12.706 2.45 17.598 43.279.629 86.559.839 129.841.629a5481.207 5481.207 0 0 1-117.592 1.885c-7.781 13.19-13.498 26.807-17.15 40.852-1.03 2.362-1.438 4.876-1.224 7.542-.94-.959-1.553-2.216-1.837-3.77-23.822 66.992-33.417 136.126-28.786 207.403-4.397-.056-7.46-2.151-9.187-6.285a99565.065 99565.065 0 0 1-.613-493.997 38671.6 38671.6 0 0 1 440.973 1.257z"
       id="path11" />
    <path
       fill="#ededed"
       d="M524.422 147.932v23.883A34602.805 34602.805 0 0 1 227.378 478.52c-2.145 2.501-3.37 5.434-3.675 8.799a3689.451 3689.451 0 0 1-20.211 90.503c.537 6.547 4.007 9.898 10.412 10.056a1241.108 1241.108 0 0 0 96.156-23.254 53566.657 53566.657 0 0 1 214.362-219.345v40.224c-4.397.055-7.46 2.15-9.187 6.285l-1.225 240.085c-.57 1.798-1.591 3.264-3.062 4.4a23219.42 23219.42 0 0 1-417.7 1.885c-4.63-71.277 4.965-140.411 28.787-207.404.284 1.555.896 2.812 1.837 3.771.892 2.81 2.525 5.114 4.9 6.914 28.581.838 57.163.838 85.744 0 7.142-7.55 6.325-13.835-2.45-18.855a1339.248 1339.248 0 0 0-82.07 0c-1.95 1.193-3.584 2.659-4.9 4.4 3.652-14.046 9.369-27.663 17.15-40.853 39.404-.21 78.602-.84 117.592-1.885 8.255-2.706 10.502-8.153 6.738-16.341-1.435-1.751-3.272-2.8-5.513-3.143-35.52-.628-71.043-.838-106.568-.628a444.41 444.41 0 0 1 23.274-37.71c44.1.21 88.197 0 132.291-.628 6.644-2.536 8.89-7.354 6.737-14.456-2.006-2.808-4.66-4.483-7.962-5.027a5142.813 5142.813 0 0 0-113.917-1.886 1359.001 1359.001 0 0 1 33.072-35.824c46.958.21 93.913 0 140.867-.629 6.67-2.652 8.915-7.471 6.737-14.455-1.778-2.469-4.023-4.144-6.737-5.028a5254.287 5254.287 0 0 0-115.143-1.885 329.403 329.403 0 0 1 47.772-35.196 6312.74 6312.74 0 0 0 126.167-1.886c7.233-3.377 9.07-8.824 5.512-16.34a35.898 35.898 0 0 0-5.512-3.143c-28.17-.628-56.344-.838-84.52-.628 57.253-27.593 117.684-41.42 181.289-41.481z"
       id="path12" />
    <path
       fill="#d71b60"
       d="M630.99 204.496c-1.477-3.517-3.927-6.24-7.35-8.17-27.653-15.272-55.417-15.691-83.294-1.257a44.808 44.808 0 0 0-11.024 9.427c-2.172-1.023-2.785-2.7-1.838-5.028l48.385-49.65a19.412 19.412 0 0 1 9.8 0l45.934 47.136c.966 2.78.762 5.295-.613 7.542z"
       id="path13" />
    <path
       fill="#ea4078"
       d="M630.99 204.496a755.59 755.59 0 0 1-50.222 52.794 1550.305 1550.305 0 0 1-51.446-52.794 44.808 44.808 0 0 1 11.024-9.427c27.877-14.434 55.64-14.015 83.295 1.257 3.422 1.93 5.872 4.653 7.35 8.17z"
       id="path14" />
    <path
       fill="#070707"
       d="M343.133 189.413c28.176-.21 56.35 0 84.52.628a35.898 35.898 0 0 1 5.512 3.142c3.559 7.517 1.721 12.964-5.512 16.341-99.628.21-199.255 0-298.881-.628-6.836-6.896-6.428-13.18 1.225-18.855 71.044-.628 142.09-.838 213.136-.628z"
       id="path15" />
    <path
       fill="#f28a1d"
       d="M563.62 274.888c-9.746-12.309-21.178-22.574-34.298-30.796-14.393-4.924-28.275-3.877-41.648 3.142-1.38-.782-2.605-1.829-3.675-3.142a906.884 906.884 0 0 1 28.174-28.283 3511.296 3511.296 0 0 1 55.121 55.936c-1.07 1.314-2.294 2.36-3.674 3.143z"
       id="path16" />
    <path
       fill="#f9a528"
       d="M563.62 274.888a351.186 351.186 0 0 1-24.499 25.14 1550.305 1550.305 0 0 1-51.447-52.794c13.373-7.019 27.255-8.066 41.648-3.142 13.12 8.222 24.552 18.487 34.298 30.796z"
       id="path17" />
    <path
       fill="#080808"
       d="M368.857 248.491c2.714.884 4.96 2.56 6.737 5.028 2.178 6.984-.068 11.803-6.737 14.455-46.954.629-93.91.839-140.867.629-32.258.21-64.515 0-96.768-.629-8.713-5.183-9.53-11.468-2.45-18.854 80.026-.629 160.056-.839 240.085-.629z"
       id="path18" />
    <path
       fill="#f17a1f"
       d="M469.3 258.547c7.984 6.711 14.722 14.253 20.212 22.626L269.025 507.43l-19.598-20.112c-.817-.838-.817-1.676 0-2.514A56688.693 56688.693 0 0 0 469.3 258.547z"
       id="path19" />
    <path
       fill="#f38a1d"
       d="M502.373 295a5.91 5.91 0 0 1 3.675.628l17.762 18.226c.817.839.817 1.676 0 2.514-73.496 75.42-146.991 150.84-220.487 226.258l-19.599-20.111c-.817-.839-.817-1.676 0-2.514A56143.91 56143.91 0 0 0 502.374 295z"
       id="path20" />
    <path
       fill="#040404"
       d="M308.835 306.313c3.302.544 5.956 2.22 7.962 5.027 2.154 7.102-.093 11.92-6.737 14.456-44.094.628-88.192.838-132.291.628-15.93.21-31.854 0-47.772-.628-1.753-.585-3.182-1.633-4.288-3.143-3.168-6.175-2.147-11.413 3.063-15.712 60.02-.628 120.04-.838 180.063-.628z"
       id="path21" />
    <path
       fill="#010101"
       d="M154.495 364.134c35.525-.21 71.048 0 106.568.628 2.24.344 4.078 1.392 5.513 3.143 3.764 8.188 1.517 13.635-6.738 16.34-43.282.21-86.562 0-129.841-.628-7.055-4.892-7.872-10.758-2.45-17.598 8.843-1.796 17.826-2.424 26.948-1.885z"
       id="path22" />
    <path
       fill="#070707"
       d="M123.872 434.525c-.214-2.666.194-5.18 1.225-7.542 1.315-1.74 2.948-3.206 4.9-4.399a1339.91 1339.91 0 0 1 82.07 0c8.774 5.02 9.59 11.305 2.45 18.855-28.582.838-57.164.838-85.745 0-2.375-1.8-4.008-4.104-4.9-6.914z"
       id="path23" />
    <path
       fill="#202020"
       d="M278.212 552.682c-3.548-2.863-7.63-4.749-12.249-5.656-13.795-2.747-26.044.396-36.748 9.427a628.361 628.361 0 0 1 9.187-43.994c.24-2.245 1.26-3.92 3.063-5.028a1014.512 1014.512 0 0 1 41.647 42.737 19.808 19.808 0 0 1-4.9 2.514z"
       id="path24" />
    <path
       fill="#424242"
       d="M278.212 552.682a1285.651 1285.651 0 0 0-48.997 11.313c-.817-.418-1.632-.838-2.45-1.257.826-2.13 1.643-4.226 2.45-6.285 10.704-9.031 22.953-12.174 36.748-9.427 4.618.907 8.7 2.793 12.25 5.656z"
       id="path25" />
  </g>
</svg>
